<svg xmlns="http://www.w3.org/2000/svg" viewBox="0 0 214.94 41.41"><title>logo</title><g id="图层_2" data-name="图层 2"><g id="图层_1-2" data-name="图层 1"><g id="图层_2-2" data-name="图层 2"><g id="图层_1-2-2" data-name="图层 1-2"><path d="M19.05,34.43a13.25,13.25,0,1,1,9.3-22.8l4-4.1a19,19,0,1,0,.2,26.9l.5-.6L28.85,30A13.2,13.2,0,0,1,19.05,34.43Z"/><rect x="39.32" y="31.92" width="9.2" height="5.7" transform="translate(-11.72 41.24) rotate(-45)"/><polygon points="64.75 10.03 53.75 21.03 42.65 10.03 38.65 14.03 64.65 40.13 68.75 36.03 57.75 25.13 68.75 14.13 64.75 10.03"/><path d="M88.55,2.73H74.75v36.7h13.8a18.46,18.46,0,0,0,18.8-17.9,18.46,18.46,0,0,0-17.9-18.8ZM87.15,35h-7.1V7.13h7a13.91,13.91,0,0,1,.9,27.8l-.8.1Z"/><path d="M119.35,17.93a2.75,2.75,0,0,0,.3,5.5,2.72,2.72,0,0,0,2.6-2.6v-.2A2.8,2.8,0,0,0,119.35,17.93Z"/></g></g><path d="M169.77,33.94V38.1H129.7V33.94h17.5V9.4H132.08V5.1h35.37V9.4H151.86V33.94Z"/><path d="M199.81,17.82v.36H212.7s0,1.25-.09,1.83c-.54,12.76-1,17.59-2.46,19.21a4.32,4.32,0,0,1-3.45,1.7,53.7,53.7,0,0,1-6.18,0,9,9,0,0,0-1.34-4.12c2.42.22,4.7.27,5.64.27a2.19,2.19,0,0,0,1.75-.58c.85-.94,1.39-4.84,1.83-14.46h-8.77c-.67,6.54-3.13,13.83-11.51,19.34A17.56,17.56,0,0,0,185,38.55c9.49-6.27,10.66-14.6,10.66-20.82V11.91h-6.89v3.22h-4.88v12c1.75-.67,3.54-1.3,5.28-1.92l.76,3.89c-5.24,2-10.88,4.21-15.22,5.82l-1-4.3c1.7-.54,3.81-1.3,6.13-2.1V15.13h-5.37V11.19h5.37V1h4V11.19h4.75V7.92h26.32v4H199.81ZM200.92,7.7a55.84,55.84,0,0,0-2-6.85L202.85,0c.76,2.1,1.79,4.88,2.19,6.58Z"/></g></g></svg>